<?xml version="1.0" encoding="UTF-8" standalone="no"?><svg xmlns="http://www.w3.org/2000/svg" xmlns:xlink="http://www.w3.org/1999/xlink" contentStyleType="text/css" height="703px" preserveAspectRatio="none" style="width:1146px;height:703px;background:#FFFFFF;" version="1.1" viewBox="0 0 1146 703" width="1146px" zoomAndPan="magnify"><defs/><g><!--MD5=[c2ffb9f5f14dbb809595cba763acacd3]
class execution_context--><g id="elem_execution_context"><rect codeLine="12" fill="#FFFFFF" height="81.875" id="execution_context" rx="10" ry="10" style="stroke:#C0C0C0;stroke-width:0.5;" width="162" x="7" y="35"/><text fill="#000000" font-family="sans-serif" font-size="12" lengthAdjust="spacing" textLength="114" x="31" y="51.1387">execution_context</text><line style="stroke:#C0C0C0;stroke-width:0.5;" x1="8" x2="168" y1="58.9688" y2="58.9688"/><ellipse cx="18" cy="69.9688" fill="#000000" rx="3" ry="3" style="stroke:#000000;stroke-width:1.0;"/><text fill="#000000" font-family="sans-serif" font-size="12" font-weight="bold" lengthAdjust="spacing" textLength="34" x="27" y="74.1074">code</text><text fill="#000000" font-family="sans-serif" font-size="12" lengthAdjust="spacing" textLength="60" x="61" y="74.1074">: INTEGER</text><line style="stroke:#C0C0C0;stroke-width:1.0;" x1="8" x2="168" y1="80.9375" y2="80.9375"/><ellipse cx="18" cy="91.9375" fill="#000000" rx="3" ry="3" style="stroke:#000000;stroke-width:1.0;"/><text fill="#000000" font-family="sans-serif" font-size="12" lengthAdjust="spacing" textLength="70" x="27" y="96.0762">value: TEXT</text><text fill="#000000" font-family="sans-serif" font-size="12" lengthAdjust="spacing" textLength="136" x="27" y="110.0449">created_at: DATETIME</text></g><!--MD5=[d8d44355abcd56a4ff6347fd2e7bf09f]
class graph_nature--><g id="elem_graph_nature"><rect codeLine="19" fill="#FFFFFF" height="81.875" id="graph_nature" rx="10" ry="10" style="stroke:#C0C0C0;stroke-width:0.5;" width="162" x="204" y="35"/><text fill="#000000" font-family="sans-serif" font-size="12" lengthAdjust="spacing" textLength="85" x="242.5" y="51.1387">graph_nature</text><line style="stroke:#C0C0C0;stroke-width:0.5;" x1="205" x2="365" y1="58.9688" y2="58.9688"/><ellipse cx="215" cy="69.9688" fill="#000000" rx="3" ry="3" style="stroke:#000000;stroke-width:1.0;"/><text fill="#000000" font-family="sans-serif" font-size="12" font-weight="bold" lengthAdjust="spacing" textLength="34" x="224" y="74.1074">code</text><text fill="#000000" font-family="sans-serif" font-size="12" lengthAdjust="spacing" textLength="37" x="258" y="74.1074">: TEXT</text><line style="stroke:#C0C0C0;stroke-width:1.0;" x1="205" x2="365" y1="80.9375" y2="80.9375"/><ellipse cx="215" cy="91.9375" fill="#000000" rx="3" ry="3" style="stroke:#000000;stroke-width:1.0;"/><text fill="#000000" font-family="sans-serif" font-size="12" lengthAdjust="spacing" textLength="70" x="224" y="96.0762">value: TEXT</text><text fill="#000000" font-family="sans-serif" font-size="12" lengthAdjust="spacing" textLength="136" x="224" y="110.0449">created_at: DATETIME</text></g><!--MD5=[ae352c2779733cac08f48bf1df7bdab1]
class boundary_nature--><g id="elem_boundary_nature"><rect codeLine="26" fill="#FFFFFF" height="81.875" id="boundary_nature" rx="10" ry="10" style="stroke:#C0C0C0;stroke-width:0.5;" width="162" x="477" y="240"/><text fill="#000000" font-family="sans-serif" font-size="12" lengthAdjust="spacing" textLength="107" x="504.5" y="256.1387">boundary_nature</text><line style="stroke:#C0C0C0;stroke-width:0.5;" x1="478" x2="638" y1="263.9688" y2="263.9688"/><ellipse cx="488" cy="274.9688" fill="#000000" rx="3" ry="3" style="stroke:#000000;stroke-width:1.0;"/><text fill="#000000" font-family="sans-serif" font-size="12" font-weight="bold" lengthAdjust="spacing" textLength="34" x="497" y="279.1074">code</text><text fill="#000000" font-family="sans-serif" font-size="12" lengthAdjust="spacing" textLength="37" x="531" y="279.1074">: TEXT</text><line style="stroke:#C0C0C0;stroke-width:1.0;" x1="478" x2="638" y1="285.9375" y2="285.9375"/><ellipse cx="488" cy="296.9375" fill="#000000" rx="3" ry="3" style="stroke:#000000;stroke-width:1.0;"/><text fill="#000000" font-family="sans-serif" font-size="12" lengthAdjust="spacing" textLength="70" x="497" y="301.0762">value: TEXT</text><text fill="#000000" font-family="sans-serif" font-size="12" lengthAdjust="spacing" textLength="136" x="497" y="315.0449">created_at: DATETIME</text></g><!--MD5=[3ab70be45cfe22b03e5a20060c48b339]
class asset_risk_type--><g id="elem_asset_risk_type"><rect codeLine="33" fill="#FFFFFF" height="81.875" id="asset_risk_type" rx="10" ry="10" style="stroke:#C0C0C0;stroke-width:0.5;" width="162" x="761" y="35"/><text fill="#000000" font-family="sans-serif" font-size="12" lengthAdjust="spacing" textLength="96" x="794" y="51.1387">asset_risk_type</text><line style="stroke:#C0C0C0;stroke-width:0.5;" x1="762" x2="922" y1="58.9688" y2="58.9688"/><ellipse cx="772" cy="69.9688" fill="#000000" rx="3" ry="3" style="stroke:#000000;stroke-width:1.0;"/><text fill="#000000" font-family="sans-serif" font-size="12" font-weight="bold" lengthAdjust="spacing" textLength="34" x="781" y="74.1074">code</text><text fill="#000000" font-family="sans-serif" font-size="12" lengthAdjust="spacing" textLength="37" x="815" y="74.1074">: TEXT</text><line style="stroke:#C0C0C0;stroke-width:1.0;" x1="762" x2="922" y1="80.9375" y2="80.9375"/><ellipse cx="772" cy="91.9375" fill="#000000" rx="3" ry="3" style="stroke:#000000;stroke-width:1.0;"/><text fill="#000000" font-family="sans-serif" font-size="12" lengthAdjust="spacing" textLength="70" x="781" y="96.0762">value: TEXT</text><text fill="#000000" font-family="sans-serif" font-size="12" lengthAdjust="spacing" textLength="136" x="781" y="110.0449">created_at: DATETIME</text></g><!--MD5=[700a84c0ec88769d6196750bc32daddf]
class host--><g id="elem_host"><rect codeLine="40" fill="#FFFFFF" height="81.875" id="host" rx="10" ry="10" style="stroke:#C0C0C0;stroke-width:0.5;" width="162" x="653" y="438"/><text fill="#000000" font-family="sans-serif" font-size="12" lengthAdjust="spacing" textLength="28" x="720" y="454.1387">host</text><line style="stroke:#C0C0C0;stroke-width:0.5;" x1="654" x2="814" y1="461.9688" y2="461.9688"/><ellipse cx="664" cy="472.9688" fill="#000000" rx="3" ry="3" style="stroke:#000000;stroke-width:1.0;"/><text fill="#000000" font-family="sans-serif" font-size="12" font-weight="bold" lengthAdjust="spacing" textLength="51" x="673" y="477.1074">host_id</text><text fill="#000000" font-family="sans-serif" font-size="12" lengthAdjust="spacing" textLength="60" x="724" y="477.1074">: INTEGER</text><line style="stroke:#C0C0C0;stroke-width:1.0;" x1="654" x2="814" y1="483.9375" y2="483.9375"/><ellipse cx="664" cy="494.9375" fill="#000000" rx="3" ry="3" style="stroke:#000000;stroke-width:1.0;"/><text fill="#000000" font-family="sans-serif" font-size="12" lengthAdjust="spacing" textLength="106" x="673" y="499.0762">host_name: TEXT</text><text fill="#000000" font-family="sans-serif" font-size="12" lengthAdjust="spacing" textLength="136" x="673" y="513.0449">created_at: DATETIME</text></g><!--MD5=[473a92a452dfa47a85f95845ced95513]
class graph--><g id="elem_graph"><rect codeLine="47" fill="#FFFFFF" height="109.8125" id="graph" rx="10" ry="10" style="stroke:#C0C0C0;stroke-width:0.5;" width="314" x="128" y="226"/><text fill="#000000" font-family="sans-serif" font-size="12" lengthAdjust="spacing" textLength="37" x="266.5" y="242.1387">graph</text><line style="stroke:#C0C0C0;stroke-width:0.5;" x1="129" x2="441" y1="249.9688" y2="249.9688"/><ellipse cx="139" cy="260.9688" fill="#000000" rx="3" ry="3" style="stroke:#000000;stroke-width:1.0;"/><text fill="#000000" font-family="sans-serif" font-size="12" font-weight="bold" lengthAdjust="spacing" textLength="61" x="148" y="265.1074">graph_id</text><text fill="#000000" font-family="sans-serif" font-size="12" lengthAdjust="spacing" textLength="60" x="209" y="265.1074">: INTEGER</text><line style="stroke:#C0C0C0;stroke-width:1.0;" x1="129" x2="441" y1="271.9375" y2="271.9375"/><ellipse cx="139" cy="282.9375" fill="#000000" rx="3" ry="3" style="stroke:#000000;stroke-width:1.0;"/><text fill="#000000" font-family="sans-serif" font-size="12" lengthAdjust="spacing" textLength="288" x="148" y="287.0762">graph_nature_id: TEXT «ENUM(graph_nature)»</text><ellipse cx="139" cy="296.9063" fill="#000000" rx="3" ry="3" style="stroke:#000000;stroke-width:1.0;"/><text fill="#000000" font-family="sans-serif" font-size="12" lengthAdjust="spacing" textLength="72" x="148" y="301.0449">name: TEXT</text><text fill="#000000" font-family="sans-serif" font-size="12" lengthAdjust="spacing" textLength="107" x="148" y="315.0137">description: TEXT</text><text fill="#000000" font-family="sans-serif" font-size="12" lengthAdjust="spacing" textLength="136" x="148" y="328.9824">created_at: DATETIME</text></g><!--MD5=[df49256d281538b12154d35545e28a62]
class boundary--><g id="elem_boundary"><rect codeLine="56" fill="#FFFFFF" height="123.7813" id="boundary" rx="10" ry="10" style="stroke:#C0C0C0;stroke-width:0.5;" width="358" x="242" y="417"/><text fill="#000000" font-family="sans-serif" font-size="12" lengthAdjust="spacing" textLength="59" x="391.5" y="433.1387">boundary</text><line style="stroke:#C0C0C0;stroke-width:0.5;" x1="243" x2="599" y1="440.9688" y2="440.9688"/><ellipse cx="253" cy="451.9688" fill="#000000" rx="3" ry="3" style="stroke:#000000;stroke-width:1.0;"/><text fill="#000000" font-family="sans-serif" font-size="12" font-weight="bold" lengthAdjust="spacing" textLength="87" x="262" y="456.1074">boundary_id</text><text fill="#000000" font-family="sans-serif" font-size="12" lengthAdjust="spacing" textLength="60" x="349" y="456.1074">: INTEGER</text><line style="stroke:#C0C0C0;stroke-width:1.0;" x1="243" x2="599" y1="462.9375" y2="462.9375"/><text fill="#000000" font-family="sans-serif" font-size="12" lengthAdjust="spacing" textLength="231" x="262" y="478.0762">parent_boundary_id: INTEGER «SELF»</text><ellipse cx="253" cy="487.9063" fill="#000000" rx="3" ry="3" style="stroke:#000000;stroke-width:1.0;"/><text fill="#000000" font-family="sans-serif" font-size="12" lengthAdjust="spacing" textLength="193" x="262" y="492.0449">graph_id: INTEGER «FK(graph)»</text><ellipse cx="253" cy="501.875" fill="#000000" rx="3" ry="3" style="stroke:#000000;stroke-width:1.0;"/><text fill="#000000" font-family="sans-serif" font-size="12" lengthAdjust="spacing" textLength="332" x="262" y="506.0137">boundary_nature_id: TEXT «ENUM(boundary_nature)»</text><ellipse cx="253" cy="515.8438" fill="#000000" rx="3" ry="3" style="stroke:#000000;stroke-width:1.0;"/><text fill="#000000" font-family="sans-serif" font-size="12" lengthAdjust="spacing" textLength="72" x="262" y="519.9824">name: TEXT</text><text fill="#000000" font-family="sans-serif" font-size="12" lengthAdjust="spacing" textLength="136" x="262" y="533.9512">created_at: DATETIME</text></g><!--MD5=[8b07a1c02deadd7b7447e03d036efc56]
class host_boundary--><g id="elem_host_boundary"><rect codeLine="66" fill="#FFFFFF" height="95.8438" id="host_boundary" rx="10" ry="10" style="stroke:#C0C0C0;stroke-width:0.5;" width="263" x="445.5" y="601"/><text fill="#000000" font-family="sans-serif" font-size="12" lengthAdjust="spacing" textLength="93" x="530.5" y="617.1387">host_boundary</text><line style="stroke:#C0C0C0;stroke-width:0.5;" x1="446.5" x2="707.5" y1="624.9688" y2="624.9688"/><ellipse cx="456.5" cy="635.9688" fill="#000000" rx="3" ry="3" style="stroke:#000000;stroke-width:1.0;"/><text fill="#000000" font-family="sans-serif" font-size="12" font-weight="bold" lengthAdjust="spacing" textLength="125" x="465.5" y="640.1074">host_boundary_id</text><text fill="#000000" font-family="sans-serif" font-size="12" lengthAdjust="spacing" textLength="60" x="590.5" y="640.1074">: INTEGER</text><line style="stroke:#C0C0C0;stroke-width:1.0;" x1="446.5" x2="707.5" y1="646.9375" y2="646.9375"/><ellipse cx="456.5" cy="657.9375" fill="#000000" rx="3" ry="3" style="stroke:#000000;stroke-width:1.0;"/><text fill="#000000" font-family="sans-serif" font-size="12" lengthAdjust="spacing" textLength="175" x="465.5" y="662.0762">host_id: INTEGER «FK(host)»</text><ellipse cx="456.5" cy="671.9063" fill="#000000" rx="3" ry="3" style="stroke:#000000;stroke-width:1.0;"/><text fill="#000000" font-family="sans-serif" font-size="12" lengthAdjust="spacing" textLength="237" x="465.5" y="676.0449">boundary_id: INTEGER «FK(boundary)»</text><text fill="#000000" font-family="sans-serif" font-size="12" lengthAdjust="spacing" textLength="136" x="465.5" y="690.0137">created_at: DATETIME</text></g><!--MD5=[ab381bdfbfe10030d9b079ea825203c9]
class raci_matrix--><g id="elem_raci_matrix"><rect codeLine="74" fill="#FFFFFF" height="137.75" id="raci_matrix" rx="10" ry="10" style="stroke:#C0C0C0;stroke-width:0.5;" width="181" x="958.5" y="7"/><text fill="#000000" font-family="sans-serif" font-size="12" lengthAdjust="spacing" textLength="67" x="1015.5" y="23.1387">raci_matrix</text><line style="stroke:#C0C0C0;stroke-width:0.5;" x1="959.5" x2="1138.5" y1="30.9688" y2="30.9688"/><ellipse cx="969.5" cy="41.9688" fill="#000000" rx="3" ry="3" style="stroke:#000000;stroke-width:1.0;"/><text fill="#000000" font-family="sans-serif" font-size="12" font-weight="bold" lengthAdjust="spacing" textLength="95" x="978.5" y="46.1074">raci_matrix_id</text><text fill="#000000" font-family="sans-serif" font-size="12" lengthAdjust="spacing" textLength="60" x="1073.5" y="46.1074">: INTEGER</text><line style="stroke:#C0C0C0;stroke-width:1.0;" x1="959.5" x2="1138.5" y1="52.9375" y2="52.9375"/><ellipse cx="969.5" cy="63.9375" fill="#000000" rx="3" ry="3" style="stroke:#000000;stroke-width:1.0;"/><text fill="#000000" font-family="sans-serif" font-size="12" lengthAdjust="spacing" textLength="72" x="978.5" y="68.0762">asset: TEXT</text><ellipse cx="969.5" cy="77.9063" fill="#000000" rx="3" ry="3" style="stroke:#000000;stroke-width:1.0;"/><text fill="#000000" font-family="sans-serif" font-size="12" lengthAdjust="spacing" textLength="110" x="978.5" y="82.0449">responsible: TEXT</text><ellipse cx="969.5" cy="91.875" fill="#000000" rx="3" ry="3" style="stroke:#000000;stroke-width:1.0;"/><text fill="#000000" font-family="sans-serif" font-size="12" lengthAdjust="spacing" textLength="115" x="978.5" y="96.0137">accountable: TEXT</text><ellipse cx="969.5" cy="105.8438" fill="#000000" rx="3" ry="3" style="stroke:#000000;stroke-width:1.0;"/><text fill="#000000" font-family="sans-serif" font-size="12" lengthAdjust="spacing" textLength="99" x="978.5" y="109.9824">consulted: TEXT</text><ellipse cx="969.5" cy="119.8125" fill="#000000" rx="3" ry="3" style="stroke:#000000;stroke-width:1.0;"/><text fill="#000000" font-family="sans-serif" font-size="12" lengthAdjust="spacing" textLength="92" x="978.5" y="123.9512">informed: TEXT</text><text fill="#000000" font-family="sans-serif" font-size="12" lengthAdjust="spacing" textLength="136" x="978.5" y="137.9199">created_at: DATETIME</text></g><!--MD5=[c3c0e8753fd919c11ce9a422755924e6]
class asset_risk--><g id="elem_asset_risk"><rect codeLine="85" fill="#FFFFFF" height="151.7188" id="asset_risk" rx="10" ry="10" style="stroke:#C0C0C0;stroke-width:0.5;" width="336" x="674" y="205"/><text fill="#000000" font-family="sans-serif" font-size="12" lengthAdjust="spacing" textLength="63" x="810.5" y="221.1387">asset_risk</text><line style="stroke:#C0C0C0;stroke-width:0.5;" x1="675" x2="1009" y1="228.9688" y2="228.9688"/><ellipse cx="685" cy="239.9688" fill="#000000" rx="3" ry="3" style="stroke:#000000;stroke-width:1.0;"/><text fill="#000000" font-family="sans-serif" font-size="12" font-weight="bold" lengthAdjust="spacing" textLength="91" x="694" y="244.1074">asset_risk_id</text><text fill="#000000" font-family="sans-serif" font-size="12" lengthAdjust="spacing" textLength="60" x="785" y="244.1074">: INTEGER</text><line style="stroke:#C0C0C0;stroke-width:1.0;" x1="675" x2="1009" y1="250.9375" y2="250.9375"/><ellipse cx="685" cy="261.9375" fill="#000000" rx="3" ry="3" style="stroke:#000000;stroke-width:1.0;"/><text fill="#000000" font-family="sans-serif" font-size="12" lengthAdjust="spacing" textLength="310" x="694" y="266.0762">asset_risk_type_id: TEXT «ENUM(asset_risk_type)»</text><ellipse cx="685" cy="275.9063" fill="#000000" rx="3" ry="3" style="stroke:#000000;stroke-width:1.0;"/><text fill="#000000" font-family="sans-serif" font-size="12" lengthAdjust="spacing" textLength="72" x="694" y="280.0449">asset: TEXT</text><ellipse cx="685" cy="289.875" fill="#000000" rx="3" ry="3" style="stroke:#000000;stroke-width:1.0;"/><text fill="#000000" font-family="sans-serif" font-size="12" lengthAdjust="spacing" textLength="117" x="694" y="294.0137">threat_event: TEXT</text><ellipse cx="685" cy="303.8438" fill="#000000" rx="3" ry="3" style="stroke:#000000;stroke-width:1.0;"/><text fill="#000000" font-family="sans-serif" font-size="12" lengthAdjust="spacing" textLength="98" x="694" y="307.9824">relevance: TEXT</text><ellipse cx="685" cy="317.8125" fill="#000000" rx="3" ry="3" style="stroke:#000000;stroke-width:1.0;"/><text fill="#000000" font-family="sans-serif" font-size="12" lengthAdjust="spacing" textLength="96" x="694" y="321.9512">likelihood: TEXT</text><ellipse cx="685" cy="331.7813" fill="#000000" rx="3" ry="3" style="stroke:#000000;stroke-width:1.0;"/><text fill="#000000" font-family="sans-serif" font-size="12" lengthAdjust="spacing" textLength="79" x="694" y="335.9199">impact: TEXT</text><text fill="#000000" font-family="sans-serif" font-size="12" lengthAdjust="spacing" textLength="136" x="694" y="349.8887">created_at: DATETIME</text></g><!--MD5=[49cf9fcd10c7edf324f31141149452d1]
link graph_nature to graph--><g id="link_graph_nature_graph"><path codeLine="97" d="M285,125.48 C285,125.48 285,217.97 285,217.97 " fill="none" id="graph_nature-graph" style="stroke:#C0C0C0;stroke-width:1.0;stroke-dasharray:7.0,7.0;"/><line style="stroke:#C0C0C0;stroke-width:1.0;" x1="285" x2="285" y1="214.97" y2="225.97"/><ellipse cx="285" cy="214.97" fill="none" rx="4" ry="4" style="stroke:#C0C0C0;stroke-width:1.0;"/><line style="stroke:#C0C0C0;stroke-width:1.0;" x1="289" x2="281" y1="221.97" y2="221.97"/><line style="stroke:#C0C0C0;stroke-width:1.0;" x1="285" x2="285" y1="128.48" y2="117.48"/><ellipse cx="285" cy="128.48" fill="none" rx="4" ry="4" style="stroke:#C0C0C0;stroke-width:1.0;"/><line style="stroke:#C0C0C0;stroke-width:1.0;" x1="281" x2="289" y1="121.48" y2="121.48"/></g><!--MD5=[8cfa1ef9077a4725ebadcaa38816ee70]
link boundary to boundary--><g id="link_boundary_boundary"><path codeLine="98" d="M559,408.87 C559,408.87 559,387 559,387 C559,387 619.5,387 619.5,387 C619.5,387 619.5,571 619.5,571 C619.5,571 548.5,571 548.5,571 C548.5,571 548.5,549.13 548.5,549.13 " fill="none" id="boundary-boundary" style="stroke:#C0C0C0;stroke-width:1.0;stroke-dasharray:7.0,7.0;"/><line style="stroke:#C0C0C0;stroke-width:1.0;" x1="548.5" x2="542.5" y1="549.13" y2="541.13"/><line style="stroke:#C0C0C0;stroke-width:1.0;" x1="548.5" x2="554.5" y1="549.13" y2="541.13"/><line style="stroke:#C0C0C0;stroke-width:1.0;" x1="548.5" x2="548.5" y1="549.13" y2="541.13"/><ellipse cx="548.5" cy="555.13" fill="none" rx="4" ry="4" style="stroke:#C0C0C0;stroke-width:1.0;"/><line style="stroke:#C0C0C0;stroke-width:1.0;" x1="559" x2="559" y1="405.87" y2="416.87"/><ellipse cx="559" cy="405.87" fill="none" rx="4" ry="4" style="stroke:#C0C0C0;stroke-width:1.0;"/><line style="stroke:#C0C0C0;stroke-width:1.0;" x1="563" x2="555" y1="412.87" y2="412.87"/></g><!--MD5=[95f854e1ed7d4b0537f3aa37cdbd7cc9]
link graph to boundary--><g id="link_graph_boundary"><path codeLine="99" d="M342,344.15 C342,344.15 342,408.82 342,408.82 " fill="none" id="graph-boundary" style="stroke:#C0C0C0;stroke-width:1.0;stroke-dasharray:7.0,7.0;"/><line style="stroke:#C0C0C0;stroke-width:1.0;" x1="342" x2="348" y1="408.82" y2="416.82"/><line style="stroke:#C0C0C0;stroke-width:1.0;" x1="342" x2="336" y1="408.82" y2="416.82"/><line style="stroke:#C0C0C0;stroke-width:1.0;" x1="342" x2="342" y1="408.82" y2="416.82"/><ellipse cx="342" cy="402.82" fill="none" rx="4" ry="4" style="stroke:#C0C0C0;stroke-width:1.0;"/><line style="stroke:#C0C0C0;stroke-width:1.0;" x1="342" x2="342" y1="347.15" y2="336.15"/><ellipse cx="342" cy="347.15" fill="none" rx="4" ry="4" style="stroke:#C0C0C0;stroke-width:1.0;"/><line style="stroke:#C0C0C0;stroke-width:1.0;" x1="338" x2="346" y1="340.15" y2="340.15"/></g><!--MD5=[b81406141d46e3f85f956a96dda4711c]
link boundary_nature to boundary--><g id="link_boundary_nature_boundary"><path codeLine="100" d="M518,330.03 C518,330.03 518,408.95 518,408.95 " fill="none" id="boundary_nature-boundary" style="stroke:#C0C0C0;stroke-width:1.0;stroke-dasharray:7.0,7.0;"/><line style="stroke:#C0C0C0;stroke-width:1.0;" x1="518" x2="518" y1="405.95" y2="416.95"/><ellipse cx="518" cy="405.95" fill="none" rx="4" ry="4" style="stroke:#C0C0C0;stroke-width:1.0;"/><line style="stroke:#C0C0C0;stroke-width:1.0;" x1="522" x2="514" y1="412.95" y2="412.95"/><line style="stroke:#C0C0C0;stroke-width:1.0;" x1="518" x2="518" y1="333.03" y2="322.03"/><ellipse cx="518" cy="333.03" fill="none" rx="4" ry="4" style="stroke:#C0C0C0;stroke-width:1.0;"/><line style="stroke:#C0C0C0;stroke-width:1.0;" x1="514" x2="522" y1="326.03" y2="326.03"/></g><!--MD5=[133f6a9fe73104742c3c9d963562613c]
link host to host_boundary--><g id="link_host_host_boundary"><path codeLine="101" d="M680.75,528.15 C680.75,528.15 680.75,592.99 680.75,592.99 " fill="none" id="host-host_boundary" style="stroke:#C0C0C0;stroke-width:1.0;stroke-dasharray:7.0,7.0;"/><line style="stroke:#C0C0C0;stroke-width:1.0;" x1="680.75" x2="686.75" y1="592.99" y2="600.99"/><line style="stroke:#C0C0C0;stroke-width:1.0;" x1="680.75" x2="674.75" y1="592.99" y2="600.99"/><line style="stroke:#C0C0C0;stroke-width:1.0;" x1="680.75" x2="680.75" y1="592.99" y2="600.99"/><ellipse cx="680.75" cy="586.99" fill="none" rx="4" ry="4" style="stroke:#C0C0C0;stroke-width:1.0;"/><line style="stroke:#C0C0C0;stroke-width:1.0;" x1="680.75" x2="680.75" y1="531.15" y2="520.15"/><ellipse cx="680.75" cy="531.15" fill="none" rx="4" ry="4" style="stroke:#C0C0C0;stroke-width:1.0;"/><line style="stroke:#C0C0C0;stroke-width:1.0;" x1="676.75" x2="684.75" y1="524.15" y2="524.15"/></g><!--MD5=[a13bdfea69c7aedb5699275510db06a5]
link boundary to host_boundary--><g id="link_boundary_host_boundary"><path codeLine="102" d="M497,549.34 C497,549.34 497,592.78 497,592.78 " fill="none" id="boundary-host_boundary" style="stroke:#C0C0C0;stroke-width:1.0;stroke-dasharray:7.0,7.0;"/><line style="stroke:#C0C0C0;stroke-width:1.0;" x1="497" x2="503" y1="592.78" y2="600.78"/><line style="stroke:#C0C0C0;stroke-width:1.0;" x1="497" x2="491" y1="592.78" y2="600.78"/><line style="stroke:#C0C0C0;stroke-width:1.0;" x1="497" x2="497" y1="592.78" y2="600.78"/><ellipse cx="497" cy="586.78" fill="none" rx="4" ry="4" style="stroke:#C0C0C0;stroke-width:1.0;"/><line style="stroke:#C0C0C0;stroke-width:1.0;" x1="497" x2="497" y1="552.34" y2="541.34"/><ellipse cx="497" cy="552.34" fill="none" rx="4" ry="4" style="stroke:#C0C0C0;stroke-width:1.0;"/><line style="stroke:#C0C0C0;stroke-width:1.0;" x1="493" x2="501" y1="545.34" y2="545.34"/></g><!--MD5=[346605d0338210fc5e938f0dd4eba5ff]
link asset_risk_type to asset_risk--><g id="link_asset_risk_type_asset_risk"><path codeLine="103" d="M842,125.48 C842,125.48 842,196.75 842,196.75 " fill="none" id="asset_risk_type-asset_risk" style="stroke:#C0C0C0;stroke-width:1.0;stroke-dasharray:7.0,7.0;"/><line style="stroke:#C0C0C0;stroke-width:1.0;" x1="842" x2="842" y1="193.75" y2="204.75"/><ellipse cx="842" cy="193.75" fill="none" rx="4" ry="4" style="stroke:#C0C0C0;stroke-width:1.0;"/><line style="stroke:#C0C0C0;stroke-width:1.0;" x1="846" x2="838" y1="200.75" y2="200.75"/><line style="stroke:#C0C0C0;stroke-width:1.0;" x1="842" x2="842" y1="128.48" y2="117.48"/><ellipse cx="842" cy="128.48" fill="none" rx="4" ry="4" style="stroke:#C0C0C0;stroke-width:1.0;"/><line style="stroke:#C0C0C0;stroke-width:1.0;" x1="838" x2="846" y1="121.48" y2="121.48"/></g><!--MD5=[0a7939c13b24b87ed0f975e0dca960df]
@startuml IE
  hide circle
  skinparam linetype ortho
  skinparam roundcorner 20
  skinparam class {
    BackgroundColor White
    ArrowColor Silver
    BorderColor Silver
    FontColor Black
    FontSize 12
  }

  entity "execution_context" as execution_context {
    * **code**: INTEGER
    - -
    * value: TEXT
      created_at: DATETIME
  }

  entity "graph_nature" as graph_nature {
    * **code**: TEXT
    - -
    * value: TEXT
      created_at: DATETIME
  }

  entity "boundary_nature" as boundary_nature {
    * **code**: TEXT
    - -
    * value: TEXT
      created_at: DATETIME
  }

  entity "asset_risk_type" as asset_risk_type {
    * **code**: TEXT
    - -
    * value: TEXT
      created_at: DATETIME
  }

  entity "host" as host {
    * **host_id**: INTEGER
    - -
    * host_name: TEXT
      created_at: DATETIME
  }

  entity "graph" as graph {
    * **graph_id**: INTEGER
    - -
    * graph_nature_id: TEXT <<ENUM(graph_nature)>>
    * name: TEXT
      description: TEXT
      created_at: DATETIME
  }

  entity "boundary" as boundary {
    * **boundary_id**: INTEGER
    - -
      parent_boundary_id: INTEGER <<SELF>>
    * graph_id: INTEGER <<FK(graph)>>
    * boundary_nature_id: TEXT <<ENUM(boundary_nature)>>
    * name: TEXT
      created_at: DATETIME
  }

  entity "host_boundary" as host_boundary {
    * **host_boundary_id**: INTEGER
    - -
    * host_id: INTEGER <<FK(host)>>
    * boundary_id: INTEGER <<FK(boundary)>>
      created_at: DATETIME
  }

  entity "raci_matrix" as raci_matrix {
    * **raci_matrix_id**: INTEGER
    - -
    * asset: TEXT
    * responsible: TEXT
    * accountable: TEXT
    * consulted: TEXT
    * informed: TEXT
      created_at: DATETIME
  }

  entity "asset_risk" as asset_risk {
    * **asset_risk_id**: INTEGER
    - -
    * asset_risk_type_id: TEXT <<ENUM(asset_risk_type)>>
    * asset: TEXT
    * threat_event: TEXT
    * relevance: TEXT
    * likelihood: TEXT
    * impact: TEXT
      created_at: DATETIME
  }

  graph_nature |o..o| graph
  boundary |o..o{ boundary
  graph |o..o{ boundary
  boundary_nature |o..o| boundary
  host |o..o{ host_boundary
  boundary |o..o{ host_boundary
  asset_risk_type |o..o| asset_risk
@enduml

PlantUML version 1.2022.5(Sat Apr 30 06:55:52 EDT 2022)
(GPL source distribution)
Java Runtime: Java(TM) SE Runtime Environment
JVM: Java HotSpot(TM) 64-Bit Server VM
Default Encoding: UTF-8
Language: en
Country: US
--></g></svg>